<svg width="150" height="100" viewBox="0 0 150 100" fill="none" xmlns="http://www.w3.org/2000/svg">
<rect width="150" height="100" fill="white"/>
<path d="M28.8571 31C28.5171 31 28.2257 31.05 27.9343 31.15C26.04 31.55 24.5343 33.1 24.1457 35.05C24 35.35 24 35.65 24 36V63.5C24 67.65 27.2543 71 31.2857 71H58V66H31.2857C29.9257 66 28.8571 64.9 28.8571 63.5C28.8571 62.1 29.9257 61 31.2857 61H58V33.5C58 32.1 56.9314 31 55.5714 31H53.1429V46L48.2857 41L43.4286 46V31H28.8571Z" fill="#799979"/>
<path d="M30 31V36.7389H76V31H30ZM30 48.0445V53.7834H76V48.0445H30ZM30 65.2611V71H76V65.2611H30Z" fill="#799979"/>
<path d="M79.696 67.164C75.978 67.164 74.47 64.798 74.47 61.314V55.62H72.468V52.188L74.756 52.006L75.276 48.08H79.098V52.006H82.582V55.62H79.098V61.262C79.098 62.9 79.878 63.55 80.97 63.55C81.438 63.55 81.958 63.394 82.322 63.264L83.05 66.618C82.27 66.852 81.204 67.164 79.696 67.164ZM85.4501 66.8V52.006H90.0781V66.8H85.4501ZM87.7641 49.952C86.2041 49.952 85.1901 49.016 85.1901 47.56C85.1901 46.13 86.2041 45.194 87.7641 45.194C89.2981 45.194 90.3381 46.13 90.3381 47.56C90.3381 49.016 89.2981 49.952 87.7641 49.952ZM100.226 67.164C96.4556 67.164 92.9716 64.304 92.9716 59.39C92.9716 54.502 96.4556 51.642 100.226 51.642C103.97 51.642 107.454 54.502 107.454 59.39C107.454 64.304 103.97 67.164 100.226 67.164ZM100.226 63.42C101.942 63.42 102.722 61.86 102.722 59.39C102.722 56.946 101.942 55.386 100.226 55.386C98.4836 55.386 97.7036 56.946 97.7036 59.39C97.7036 61.86 98.4836 63.42 100.226 63.42ZM110.358 66.8V52.006H114.128L114.466 53.852H114.544C115.766 52.656 117.274 51.642 119.276 51.642C122.5 51.642 123.878 53.956 123.878 57.648V66.8H119.25V58.22C119.25 56.166 118.704 55.594 117.534 55.594C116.494 55.594 115.87 56.062 114.986 56.92V66.8H110.358Z" fill="#A95C92"/>
</svg>
